<svg xmlns="http://www.w3.org/2000/svg" id="Layer_2" data-name="Layer 2" width="2322.48" height="1669.34" viewBox="0 0 2322.48 1669.34"><defs><style>      .cls-1 {        opacity: .06;      }      .cls-2 {        opacity: .1;      }      .cls-3 {        fill: #004c6f;      }      .cls-4 {        fill: #003f5c;      }      .cls-5 {        fill: #003455;      }      .cls-6 {        fill: #00bff1;      }      .cls-7 {        fill: #00a9f8;      }      .cls-8 {        fill: #001e37;      }      .cls-9 {        fill: #007ef4;      }      .cls-10 {        fill: #0087c0;      }      .cls-11 {        fill: #ec1619;      }      .cls-12 {        fill: #fff;      }      .cls-13 {        fill: #e78258;      }      .cls-14 {        fill: #e47f56;      }      .cls-15 {        fill: #f00015;      }      .cls-16 {        fill: #e2f5fa;      }      .cls-17 {        fill: #e2f0f5;      }      .cls-18 {        fill: #f18a60;      }      .cls-19 {        fill: #98def8;      }      .cls-20 {        fill: #d00015;      }      .cls-21 {        fill: #d2e3eb;      }      .cls-22 {        fill: #d67852;      }      .cls-23 {        fill: #e40014;      }      .cls-24 {        fill: #9ac3d1;      }      .cls-25 {        fill: #597c89;      }      .cls-26 {        fill: #604334;      }      .cls-27 {        fill: #45cefb;      }      .cls-28 {        fill: #7a4f43;      }      .cls-29 {        fill: #4d6c77;      }      .cls-30 {        fill: #7a959f;      }      .cls-31 {        opacity: .15;      }      .cls-32 {        opacity: .5;      }    </style></defs><g id="Layer_1-2" data-name="Layer 1"><path class="cls-19" d="M2012.52,1624.7c88.25-148.11,138.96-321.2,138.96-506.13,0-546.89-443.35-990.24-990.24-990.24S171,571.68,171,1118.57c0,184.93,50.71,358.01,138.96,506.13H2012.52Z"></path><path class="cls-27" d="M2005.36,600.64V1624.7h7.16c88.25-148.11,138.96-321.2,138.96-506.13s-53.46-367.24-146.11-517.93Z"></path><g class="cls-32"><path class="cls-12" d="M1491.24,724.84c-3.31,0-6-2.69-6-6s2.69-6.03,6-6.03,6,2.66,6,5.97v.06c0,3.31-2.69,6-6,6Z"></path><path class="cls-12" d="M1491.24,816.85c-3.31,0-6-2.69-6-6v-.1c0-3.31,2.69-6,6-6s6,2.69,6,6v.1c0,3.31-2.69,6-6,6Zm0-23c-3.31,0-6-2.69-6-6v-.1c0-3.31,2.69-6,6-6s6,2.69,6,6v.1c0,3.31-2.69,6-6,6Zm0-23c-3.31,0-6-2.69-6-6v-.1c0-3.31,2.69-6,6-6s6,2.69,6,6v.1c0,3.31-2.69,6-6,6Zm0-23c-3.31,0-6-2.69-6-6v-.1c0-3.31,2.69-6,6-6s6,2.69,6,6v.1c0,3.31-2.69,6-6,6Z"></path><path class="cls-12" d="M1491.3,839.81c-3.31,0-6.06-2.69-6.06-6s2.69-6.03,6-6.03c2.44,0,4.53,1.44,5.47,3.51,.36,.76,.56,1.62,.56,2.51,0,3.31-2.66,6-5.97,6Z"></path><path class="cls-12" d="M1803.38,839.81h-.12c-3.31,0-6-2.69-6-6s2.69-6,6-6h.12c3.31,0,6,2.69,6,6s-2.69,6-6,6Zm-26.01,0h-.12c-3.31,0-6-2.69-6-6s2.69-6,6-6h.12c3.31,0,6,2.69,6,6s-2.69,6-6,6Zm-26.01,0h-.12c-3.31,0-6-2.69-6-6s2.69-6,6-6h.12c3.31,0,6,2.69,6,6s-2.69,6-6,6Zm-26.01,0h-.12c-3.31,0-6-2.69-6-6s2.69-6,6-6h.12c3.31,0,6,2.69,6,6s-2.69,6-6,6Zm-26.01,0h-.12c-3.31,0-6-2.69-6-6s2.69-6,6-6h.12c3.31,0,6,2.69,6,6s-2.69,6-6,6Zm-26.01,0h-.12c-3.31,0-6-2.69-6-6s2.69-6,6-6h.12c3.31,0,6,2.69,6,6s-2.69,6-6,6Zm-26.01,0h-.12c-3.31,0-6-2.69-6-6s2.69-6,6-6h.12c3.31,0,6,2.69,6,6s-2.69,6-6,6Zm-26.01,0h-.12c-3.31,0-6-2.69-6-6s2.69-6,6-6h.12c3.31,0,6,2.69,6,6s-2.69,6-6,6Zm-26.01,0h-.12c-3.31,0-6-2.69-6-6s2.69-6,6-6h.12c3.31,0,6,2.69,6,6s-2.69,6-6,6Zm-26.01,0h-.12c-3.31,0-6-2.69-6-6s2.69-6,6-6h.12c3.31,0,6,2.69,6,6s-2.69,6-6,6Zm-26.01,0h-.12c-3.31,0-6-2.69-6-6s2.69-6,6-6h.12c3.31,0,6,2.69,6,6s-2.69,6-6,6Zm-26.01,0h-.12c-3.31,0-6-2.69-6-6s2.69-6,6-6h.12c3.31,0,6,2.69,6,6s-2.69,6-6,6Z"></path><path class="cls-12" d="M1829.32,839.84c-2.45,0-4.56-1.46-5.49-3.56-.34-.75-.54-1.59-.54-2.47,0-3.31,2.66-6,5.97-6h.06c3.31,0,6,2.69,6,6s-2.69,6.03-6,6.03Z"></path><path class="cls-12" d="M1829.32,983.57c-3.31,0-6-2.69-6-6v-.11c0-3.31,2.69-6,6-6s6,2.69,6,6v.11c0,3.31-2.69,6-6,6Zm0-23.95c-3.31,0-6-2.69-6-6v-.11c0-3.31,2.69-6,6-6s6,2.69,6,6v.11c0,3.31-2.69,6-6,6Zm0-23.95c-3.31,0-6-2.69-6-6v-.11c0-3.31,2.69-6,6-6s6,2.69,6,6v.11c0,3.31-2.69,6-6,6Zm0-23.95c-3.31,0-6-2.69-6-6v-.11c0-3.31,2.69-6,6-6s6,2.69,6,6v.11c0,3.31-2.69,6-6,6Zm0-23.95c-3.31,0-6-2.69-6-6v-.11c0-3.31,2.69-6,6-6s6,2.69,6,6v.11c0,3.31-2.69,6-6,6Zm0-23.95c-3.31,0-6-2.69-6-6v-.11c0-3.31,2.69-6,6-6s6,2.69,6,6v.11c0,3.31-2.69,6-6,6Z"></path><path class="cls-12" d="M1829.32,1007.47c-3.31,0-6-2.69-6-6s2.69-6.03,6-6.03,6,2.66,6,5.97v.06c0,3.31-2.69,6-6,6Z"></path></g><g><g class="cls-32"><path class="cls-12" d="M335.97,979.85c-3.31,0-6-2.66-6-5.97v-.06c0-3.31,2.69-6,6-6s6,2.69,6,6-2.69,6.03-6,6.03Z"></path><path class="cls-12" d="M335.97,954.93c-3.31,0-6-2.69-6-6v-.11c0-3.31,2.69-6,6-6s6,2.69,6,6v.11c0,3.31-2.69,6-6,6Zm0-25.01c-3.31,0-6-2.69-6-6v-.11c0-3.31,2.69-6,6-6s6,2.69,6,6v.11c0,3.31-2.69,6-6,6Zm0-25.01c-3.31,0-6-2.69-6-6v-.11c0-3.31,2.69-6,6-6s6,2.69,6,6v.11c0,3.31-2.69,6-6,6Zm0-25.01c-3.31,0-6-2.69-6-6v-.11c0-3.31,2.69-6,6-6s6,2.69,6,6v.11c0,3.31-2.69,6-6,6Zm0-25.01c-3.31,0-6-2.69-6-6v-.11c0-3.31,2.69-6,6-6s6,2.69,6,6v.11c0,3.31-2.69,6-6,6Zm0-25.01c-3.31,0-6-2.69-6-6v-.11c0-3.31,2.69-6,6-6s6,2.69,6,6v.11c0,3.31-2.69,6-6,6Zm0-25.01c-3.31,0-6-2.69-6-6v-.11c0-3.31,2.69-6,6-6s6,2.69,6,6v.11c0,3.31-2.69,6-6,6Zm0-25.01c-3.31,0-6-2.69-6-6v-.11c0-3.31,2.69-6,6-6s6,2.69,6,6v.11c0,3.31-2.69,6-6,6Zm0-25.01c-3.31,0-6-2.69-6-6v-.11c0-3.31,2.69-6,6-6s6,2.69,6,6v.11c0,3.31-2.69,6-6,6Zm0-25.01c-3.31,0-6-2.69-6-6v-.11c0-3.31,2.69-6,6-6s6,2.69,6,6v.11c0,3.31-2.69,6-6,6Z"></path><path class="cls-12" d="M335.97,704.84c-3.31,0-6-2.66-6-5.97v-.06c0-3.31,2.69-6,6-6s6.03,2.69,6.03,6c0,2.44-1.44,4.54-3.53,5.48-.76,.35-1.61,.55-2.5,.55Z"></path><path class="cls-12" d="M1118.48,704.81h-.11c-3.31,0-6-2.69-6-6s2.69-6,6-6h.11c3.31,0,6,2.69,6,6s-2.69,6-6,6Zm-25.24,0h-.11c-3.31,0-6-2.69-6-6s2.69-6,6-6h.11c3.31,0,6,2.69,6,6s-2.69,6-6,6Zm-25.24,0h-.11c-3.31,0-6-2.69-6-6s2.69-6,6-6h.11c3.31,0,6,2.69,6,6s-2.69,6-6,6Zm-25.24,0h-.11c-3.31,0-6-2.69-6-6s2.69-6,6-6h.11c3.31,0,6,2.69,6,6s-2.69,6-6,6Zm-25.24,0h-.11c-3.31,0-6-2.69-6-6s2.69-6,6-6h.11c3.31,0,6,2.69,6,6s-2.69,6-6,6Zm-25.24,0h-.11c-3.31,0-6-2.69-6-6s2.69-6,6-6h.11c3.31,0,6,2.69,6,6s-2.69,6-6,6Zm-25.24,0h-.11c-3.31,0-6-2.69-6-6s2.69-6,6-6h.11c3.31,0,6,2.69,6,6s-2.69,6-6,6Zm-25.24,0h-.11c-3.31,0-6-2.69-6-6s2.69-6,6-6h.11c3.31,0,6,2.69,6,6s-2.69,6-6,6Zm-25.24,0h-.11c-3.31,0-6-2.69-6-6s2.69-6,6-6h.11c3.31,0,6,2.69,6,6s-2.69,6-6,6Zm-25.24,0h-.11c-3.31,0-6-2.69-6-6s2.69-6,6-6h.11c3.31,0,6,2.69,6,6s-2.69,6-6,6Zm-25.24,0h-.11c-3.31,0-6-2.69-6-6s2.69-6,6-6h.11c3.31,0,6,2.69,6,6s-2.69,6-6,6Zm-25.24,0h-.11c-3.31,0-6-2.69-6-6s2.69-6,6-6h.11c3.31,0,6,2.69,6,6s-2.69,6-6,6Zm-25.24,0h-.11c-3.31,0-6-2.69-6-6s2.69-6,6-6h.11c3.31,0,6,2.69,6,6s-2.69,6-6,6Zm-25.24,0h-.11c-3.31,0-6-2.69-6-6s2.69-6,6-6h.11c3.31,0,6,2.69,6,6s-2.69,6-6,6Zm-25.24,0h-.11c-3.31,0-6-2.69-6-6s2.69-6,6-6h.11c3.31,0,6,2.69,6,6s-2.69,6-6,6Zm-25.24,0h-.11c-3.31,0-6-2.69-6-6s2.69-6,6-6h.11c3.31,0,6,2.69,6,6s-2.69,6-6,6Zm-25.24,0h-.11c-3.31,0-6-2.69-6-6s2.69-6,6-6h.11c3.31,0,6,2.69,6,6s-2.69,6-6,6Zm-25.24,0h-.11c-3.31,0-6-2.69-6-6s2.69-6,6-6h.11c3.31,0,6,2.69,6,6s-2.69,6-6,6Zm-25.24,0h-.11c-3.31,0-6-2.69-6-6s2.69-6,6-6h.11c3.31,0,6,2.69,6,6s-2.69,6-6,6Zm-25.24,0h-.11c-3.31,0-6-2.69-6-6s2.69-6,6-6h.11c3.31,0,6,2.69,6,6s-2.69,6-6,6Zm-25.24,0h-.11c-3.31,0-6-2.69-6-6s2.69-6,6-6h.11c3.31,0,6,2.69,6,6s-2.69,6-6,6Zm-25.24,0h-.11c-3.31,0-6-2.69-6-6s2.69-6,6-6h.11c3.31,0,6,2.69,6,6s-2.69,6-6,6Zm-25.24,0h-.11c-3.31,0-6-2.69-6-6s2.69-6,6-6h.11c3.31,0,6,2.69,6,6s-2.69,6-6,6Zm-25.24,0h-.11c-3.31,0-6-2.69-6-6s2.69-6,6-6h.11c3.31,0,6,2.69,6,6s-2.69,6-6,6Zm-25.24,0h-.11c-3.31,0-6-2.69-6-6s2.69-6,6-6h.11c3.31,0,6,2.69,6,6s-2.69,6-6,6Zm-25.24,0h-.11c-3.31,0-6-2.69-6-6s2.69-6,6-6h.11c3.31,0,6,2.69,6,6s-2.69,6-6,6Zm-25.24,0h-.11c-3.31,0-6-2.69-6-6s2.69-6,6-6h.11c3.31,0,6,2.69,6,6s-2.69,6-6,6Zm-25.24,0h-.11c-3.31,0-6-2.69-6-6s2.69-6,6-6h.11c3.31,0,6,2.69,6,6s-2.69,6-6,6Zm-25.24,0h-.11c-3.31,0-6-2.69-6-6s2.69-6,6-6h.11c3.31,0,6,2.69,6,6s-2.69,6-6,6Zm-25.24,0h-.11c-3.31,0-6-2.69-6-6s2.69-6,6-6h.11c3.31,0,6,2.69,6,6s-2.69,6-6,6Zm-25.24,0h-.11c-3.31,0-6-2.69-6-6s2.69-6,6-6h.11c3.31,0,6,2.69,6,6s-2.69,6-6,6Z"></path><path class="cls-12" d="M1143.66,704.81c-3.31,0-6.03-2.69-6.03-6,0-2.45,1.46-4.56,3.56-5.49,.75-.34,1.59-.54,2.47-.54,3.31,0,6,2.66,6,5.97s-2.69,6.06-6,6.06Z"></path><path class="cls-12" d="M1143.66,679.55c-3.31,0-6-2.69-6-6v-.11c0-3.31,2.69-6,6-6s6,2.69,6,6v.11c0,3.31-2.69,6-6,6Zm0-25.32c-3.31,0-6-2.69-6-6v-.11c0-3.31,2.69-6,6-6s6,2.69,6,6v.11c0,3.31-2.69,6-6,6Zm0-25.32c-3.31,0-6-2.69-6-6v-.11c0-3.31,2.69-6,6-6s6,2.69,6,6v.11c0,3.31-2.69,6-6,6Zm0-25.32c-3.31,0-6-2.69-6-6v-.11c0-3.31,2.69-6,6-6s6,2.69,6,6v.11c0,3.31-2.69,6-6,6Zm0-25.32c-3.31,0-6-2.69-6-6v-.11c0-3.31,2.69-6,6-6s6,2.69,6,6v.11c0,3.31-2.69,6-6,6Zm0-25.32c-3.31,0-6-2.69-6-6v-.11c0-3.31,2.69-6,6-6s6,2.69,6,6v.11c0,3.31-2.69,6-6,6Zm0-25.32c-3.31,0-6-2.69-6-6v-.11c0-3.31,2.69-6,6-6s6,2.69,6,6v.11c0,3.31-2.69,6-6,6Z"></path><path class="cls-12" d="M1143.66,502.29c-3.31,0-6-2.66-6-5.97v-.06c0-3.31,2.69-6,6-6s6,2.69,6,6-2.69,6.03-6,6.03Z"></path></g><g><g><path class="cls-5" d="M733.25,1555.17s9.29,28.77,7.49,52.65c-.69,9.2-7.56,16.64-16.68,16.64h-112.22s-11.97-2.06-14.5-9.57c0,0,4.86-16.89,22.98-19.14,40.8-5.06,48.66-27.72,64.2-39.34,0,0,52.12-1.25,48.74-1.25Z"></path><path class="cls-5" d="M847.55,1557.51s-14.22,28.29-19.69,30.34c-3.87,1.45-20.51,7.18-25.49,21.6-2.58,7.48,1.58,15.41,9.49,15.41h84.35s16.4-.68,15.04-19.82-10.25-53.31-10.25-53.31l-53.45,5.79Z"></path><path class="cls-3" d="M649.42,954.34c-3.84,218,14.07,390.89,19.14,617.27l70.32-.58c7.21-140.5,17.33-281.88,33.46-421.58l5.44-.11c19.34,107.82,48.49,299.08,61.54,420.51l66.25-2.05c-.55-179.82,9.86-357.12,.64-536.67,0,0-3.78-47.83-13.85-89.38-80.25-1.41-162.7,11.09-242.95,12.59Z"></path><path class="cls-4" d="M686.21,1312.11c-5.68-42.66-8.71-85.57-9.37-128.59-.57-37.37,.15-74.74-.31-112.1-3.58-3.8-5.81-8.77-5.37-13.86,1.23-14.22,1.03-28.48-.04-42.71-.52-6.85-1.23-13.69-2.05-20.51-.22-1.87-.46-3.73-.7-5.59-.04-.32-.33-2.48-.44-3.31-.17-1.19-.42-2.97-.46-3.31-.22-1.55-.44-3.1-.66-4.65-1.13-7.83-2.31-15.66-3.43-23.51-4.66,.16-9.31,.28-13.95,.37-3.84,218,14.07,390.89,19.14,617.27l70.32-.58c.27-5.35,.56-10.71,.85-16.06-11.23-37.12-20.26-75.12-29.31-112.8-10.32-42.92-18.39-86.31-24.21-130.06Z"></path><path class="cls-4" d="M883.44,1536.76c-7.9-27-13.41-54.6-20.4-81.83-10.27-39.98-23.05-79.38-34.12-119.15-12.66-45.43-24.72-91.03-36.17-136.78-1.01-4.04-13.29-45.33-14.18-45.32,19.33,108.55,47.88,296.35,60.76,416.17l54.57-1.69c-3.98-10.35-7.39-20.92-10.45-31.4Z"></path></g><g><path class="cls-16" d="M316.68,1279.17c9.23,10.56,108.26,156.04,109.93,164.43l-22.16,181.27h369.52l-24.41-188.51c54.52-11.39,65.03-92.14,65.03-135.88v-32.55s-501.49,7.16-497.91,11.24Z"></path><g><path class="cls-12" d="M828.98,1240.62H279.57l10.67,37.33c3.66,12.61,10.98,17.29,20.84,17.29H828.98c7.59,0,13.74-6.15,13.74-13.74v-27.13c0-7.59-6.15-13.74-13.74-13.74Z"></path><rect class="cls-16" x="771.56" y="1222.42" width="18.21" height="18.21"></rect><path class="cls-12" d="M461.59,1209.46h-16.73c-4.98,0-9.02,3.32-9.02,7.42v23.74h45.26v-15.1c0-8.87-8.74-16.06-19.51-16.06Z"></path><path class="cls-12" d="M833.89,1209.18H457.4c-2.48,0-4.49,2.83-4.49,6.32v7.41c0,3.49,2.01,6.32,4.49,6.32h376.5c2.48,0,4.49-2.83,4.49-6.32v-7.41c0-3.49-2.01-6.32-4.49-6.32Z"></path></g></g><g><path class="cls-18" d="M574.28,703.82c-26.31,42.24-53.36,85.97-86.05,123.58-33,31.29-106.06,90.88-106.06,90.88,0,0-49.02,21.21-56.47,27.3-10.04,8.22-19.85,23.39-28.89,34.91,19.82,14.44,30.01-12.06,44.37-15.98,26.59-6.05-1.23,13.53-2.97,15.85,0,0,3.92,10.07,14.55,1.68,10.63-8.39,10.77-5.73,17.2-7.97,16.06-6.03,17.13-11.64,29.97-26.2,47.41-17.9,95.58-38.84,135.83-70.13,43.16-40.67,77.04-90.45,100.53-144.82l-62.01-29.09Z"></path><path class="cls-13" d="M574.28,703.82c-20.7,33.23-41.87,67.37-65.87,98.74,2.14,.74,4.12,2.25,5.6,4.75,6.18,10.42,8.36,22.58,5.03,34.34-3.1,10.92-10.09,20.43-17.87,28.5-14.77,15.32-33.22,26.81-50.95,38.35-9.51,6.2-18.83,12.7-28.22,19.08-10.46,7.11-24.14,16.84-24.14,16.84-6.24,6.68-16.88,20.82-22.94,27.56,11.48-5.36,13.64-11.23,25-24.13,47.41-17.9,95.58-38.84,135.83-70.13,43.16-40.67,77.04-90.45,100.53-144.82l-62.01-29.09Z"></path><path class="cls-17" d="M581.03,845.52c13.75-18.18,41.96-52.03,47.35-74.05,14.22-24.78,39.2-78.68,8.04-102.46-27.27-29.79-57.49,14.27-80.26,43.5-16.91,21.7-43.58,62.05-53,77.01,12.44,10.74,75.84,54.95,77.88,56Z"></path><path class="cls-21" d="M636.41,669.01c-1.9-2.07-3.81-3.77-5.73-5.16-1.03,2.65-2.05,5.31-3.04,7.98-3.22,8.7-6.24,17.47-9.24,26.24-14.57,42.65-30.71,94.83-61.99,130.45,13.21,9.29,23.79,16.58,24.61,17,13.75-18.18,41.96-52.03,47.35-74.05,14.22-24.78,39.2-78.68,8.04-102.46Z"></path><path class="cls-17" d="M848.71,692.12c6.14-43.38-1.31-53.24-9.64-61.58-11.48-11.48-84.85-31.13-135.84-17.17-50.99,13.96-104.46,45.1-116.75,66.96-20.93,37.23,18.2,81.54,50.55,195.27,7.65,26.9,103.58,62.89,175.22,86.31,23.16-4.92,46.37-9.65,69.62-14.13-5.8-24.61-13.83-54.45-27.9-88.28-15.25-36.66-11.4-124.02-5.26-167.4Z"></path><path class="cls-21" d="M853.97,859.52c-15.25-36.66-11.4-124.02-5.26-167.4,5.74-40.52-.39-51.8-8.01-59.9-2.36,2.19-5.2,3.84-8.3,4.66-.42,.11-1.5,.49-2.4,.8-.77,.39-1.6,.8-1.92,1-.12,.07-.23,.15-.34,.22-1.17,1.43-2.01,1.94-2.33,1.97-.13,.11-.26,.23-.38,.34-.79,.8-1.51,1.65-2.25,2.49-.22,.31-.44,.61-.64,.92-1.85,2.77-3.46,5.69-4.9,8.69-.27,.57-.53,1.14-.78,1.71-.53,1.4-1.06,2.79-1.55,4.2-1.18,3.4-2.2,6.85-3.12,10.32-1.98,7.51-3.44,15.16-4.6,22.83-.12,.81-.24,1.62-.35,2.43-.17,1.4-.34,2.79-.5,4.19-.39,3.44-.73,6.89-1.04,10.35-.59,6.65-1.03,13.32-1.39,19.98-.61,11.18-.83,22.4-1.58,33.57-2.31,34.55-10.9,68.81-26.63,99.72-13.4,26.35-32.04,48.35-54.01,66.5,29.26,12.03,61.85,23.43,90.55,32.81,23.16-4.92,46.37-9.65,69.62-14.13-5.8-24.61-13.83-54.45-27.9-88.28Z"></path><path class="cls-3" d="M766.09,609.92c-8.75-.74-21.91-3.14-30.76-2.69-10.78,45.81-4.41,94.17-4.41,94.17l-76.44,12.41s-5.41-43.23,3.82-86.45c-8.3,3.95-20.35,9.89-27.57,14.52,1.58,3.84-12.05,122.54-6.07,210.92,9.06,57.11,21.21,96.29,30.3,144.23,78.26-17.79,164.3-11.84,243.16-26.79-5.75-46.11-42.17-129.03-42.48-129.94-58.04-53.13-110.64-124.85-89.55-230.37Z"></path><path class="cls-4" d="M675.95,953c-3.75-20.06-7.31-40.14-12.46-59.91-5.22-20.02-13.15-39.27-17.72-59.44-5.06-22.35-7.14-45.41-7.85-68.28-.69-22.31-.1-44.62-.06-66.93,.02-11.04-.1-22.08-.59-33.11-.25-5.59-.59-11.17-1.07-16.74-.2-2.33-.42-4.65-.67-6.98-.09-.82-.19-1.64-.28-2.46-1.64,.94-3.16,1.85-4.52,2.72,1.58,3.84-12.05,122.54-6.07,210.92,9.06,57.1,21.21,96.29,30.3,144.23,11.39-2.59,22.94-4.66,34.61-6.38-6.63-11.62-11.19-24.65-13.62-37.65Z"></path><g><path class="cls-18" d="M707.66,552.74s-22.82,3.71-34.52,8.91c-8.78,3.9-13.94,12.61-13.77,21.64l.21,10.35c.09,3.4,.21,6.81,.36,10.23,.29,6.84,.72,13.72,1.35,20.77l.08,.9c1.54,17.21,15.16,18.86,32.06,15.21,23.7-5.12,33.2-28.94,32.13-32.81-6.75-24.44-16.61-52.33-17.91-55.2Z"></path><path class="cls-2" d="M673.14,561.65c-8.78,3.9-13.94,12.61-13.77,21.64l.21,10.35c.09,3.4,.21,6.81,.36,10.22,.29,6.84,.72,13.72,1.35,20.77l.08,.9c.27,2.96,.94,5.78,1.96,8.43,23.91-9.25,42.06-30.19,41.95-57.09l-1.07-2.41s-19.37-18.02-31.07-12.82Z"></path><path class="cls-18" d="M604.43,494.34s13.67,137.71,57.69,123.2c38.61-12.72,50.87-35.55,50.87-35.55,0,0,17.99-102.97-10.76-119.15-22.44-12.63-97.8,31.49-97.8,31.49Z"></path><path class="cls-28" d="M658.24,452.24c-24.84,4.46-36.24,20.05-48.14,24.01,0,0-18.03,47.45,17.56,38.18,35.59-9.26,51.42-10.49,53.62-2.02,2.21,8.47,1.97,19.09,1.97,19.09l9.53,2.04s12.29-12.86,16.49-5.8c5.61,9.43,6.62,25.43-2.85,29.4,0,0,2.13,12.57,10.7,23.67,0,0,26.45-40.16,5.88-93.21-12.68-32.71-39.92-39.82-64.76-35.37Z"></path></g><g><path class="cls-20" d="M579.45,540.28s.2,7.82,9.43,4.42c10.55-3.89,20.07-8.9,21.72-9.96l-2.27-13.23s-22.37,7.69-28.88,18.76Z"></path><path class="cls-11" d="M600.43,516.31s-17.89-68.18,56.93-76.6c33.25-3.74,54.68,9.43,65.18,25.21,7.72,11.6,8.81,24.05,8.99,51.23,0,0-9.98-6.98-21.39-8.49-24.04-3.2-60.94-12.38-109.71,8.65Z"></path><path class="cls-15" d="M612.01,499.8c-3.41,1.03-6.81,2.11-10.19,3.23-1.04,.34-2.08,.7-3.12,1.05,.44,7.33,1.72,12.23,1.72,12.23,48.77-21.03,85.68-11.85,109.71-8.65,11.41,1.52,21.39,8.49,21.39,8.49-.04-6.61,.22-8.59-.02-13.66-42.17-17.93-105.76-6.84-119.5-2.69Z"></path><path class="cls-23" d="M612.98,459.02c-21.54,22.94-12.55,57.29-12.55,57.29,1.49-.64,2.97-1.25,4.44-1.84-.03-.2-.07-.4-.1-.6-.99-7.62,3.96-45.08,8.2-54.85Z"></path><path class="cls-23" d="M602,512.81s18.55-12.72,57.65-14.1c14.46-.51,43.95,1.57,43.95,1.57,0,0-27.91,23.91-37.71,28.47-6.17,2.87-16.94,5.33-29.14,3.62s-48.76-2.54-57.29,7.92l22.55-27.47Z"></path></g><g><g><path class="cls-16" d="M605.35,957.19h251.57c8.39,0,15.2,6.81,15.2,15.2v103.63c0,8.39-6.81,15.2-15.2,15.2h-251.57c-8.39,0-15.2-6.81-15.2-15.2v-103.63c0-8.39,6.81-15.2,15.2-15.2Z" transform="translate(396.41 -188.85) rotate(20.1)"></path><rect class="cls-12" x="598.72" y="958.71" width="274.84" height="124.38" rx="14.46" ry="14.46" transform="translate(395.58 -190.77) rotate(20.1)"></rect></g><path class="cls-18" d="M946.61,841.11l-1.03-3.97h0c-4.35-16.24-10.41-30.49-16.96-43.9-6.59-13.39-13.77-25.9-21.17-37.96-7.41-12.05-15.09-23.62-22.7-34.87l-11.28-16.59c-3.67-5.42-7.25-10.75-10.41-15.73l-60.66,38.34c3.99,6.29,7.87,12.04,11.69,17.67l11.24,16.53c7.35,10.86,14.43,21.55,21.01,32.25,6.57,10.69,12.66,21.38,17.87,31.96,2.09,4.26,4.03,8.5,5.78,12.69l-8.52,8.82c-8.94,9.21-17.93,18.38-26.97,27.51-18.08,18.23-36.33,36.27-54.92,53.82l20.21,27.57c22.8-12.88,45.23-26.23,67.5-39.8,11.13-6.79,22.23-13.63,33.29-20.53l16.58-10.4c5.54-3.49,11-6.95,16.61-10.56,10.61-6.85,16.18-19.97,12.84-32.86Z"></path><path class="cls-13" d="M946.61,841.11l-1.03-3.97h0c-4.35-16.24-10.41-30.49-16.96-43.9-6.59-13.39-13.77-25.9-21.17-37.96-7.41-12.05-15.09-23.62-22.7-34.87l-11.28-16.59c-3.67-5.42-7.25-10.75-10.42-15.73l-60.66,38.34c3.99,6.29,7.87,12.04,11.69,17.67l11.24,16.53c7.35,10.86,14.43,21.55,21.01,32.25,2.32,3.78,4.59,7.56,6.77,11.34,1.42-.73,3.11-1.18,5.07-1.19,13.96-.08,27.87-3.31,41.82-1.41,10.47,1.43,18.63,6.95,22.5,15.56,.99,1.68,1.88,3.46,2.62,5.35,3.79,9.68,3.37,20.05,1.95,30.14-1.43,10.15-2.94,20.41-6.77,29.87,4.47-2.83,8.92-5.65,13.47-8.58,10.61-6.85,16.18-19.97,12.84-32.86Z"></path><path class="cls-17" d="M839.05,804.37c43.28-10.81,83.29-40.39,85.19-41.36-13.38-29.49-51.02-95.73-73.54-123.31-30.3-37.11-89.56,18.06-64.48,58.31,11.5,28.06,40.24,82.3,52.83,106.35Z"></path><path class="cls-21" d="M859.79,655.42c16.15,26.32,25.38,57.1,29.82,87.5,1.92,13.11,3.14,26.23,3.5,39.34,17.87-9.79,30.1-18.71,31.13-19.24-13.38-29.49-51.02-95.73-73.54-123.31-2.78-3.41-5.81-6.03-8.99-7.96,6.78,7.17,12.79,15.04,18.08,23.66Z"></path><path class="cls-18" d="M785.79,921.91s-35.63,14.31-49.66,30.02l39.65,42.78s7.8-5.86,14.4-12.25c16.88-16.36,18.32-31.24,22.49-44.02,0,0,2.28-26.79-26.89-16.53Z"></path><path class="cls-18" d="M750.57,956.67l-.55,.32-.62,.38c-.42,.26-.83,.52-1.25,.8-.84,.54-1.68,1.12-2.51,1.68-1.66,1.17-3.32,2.37-4.93,3.63-3.24,2.5-6.38,5.17-9.36,7.99-1.52,1.38-2.94,2.87-4.39,4.31-1.39,1.5-2.83,2.97-4.14,4.54-2.73,3.06-5.16,6.34-7.54,9.67l-.12,.16c-1.74,2.44-5.13,3-7.57,1.25-2.37-1.69-2.96-4.95-1.39-7.37,2.46-3.78,5-7.52,7.85-11,1.37-1.79,2.87-3.46,4.33-5.17,1.52-1.65,3.01-3.34,4.6-4.92,3.13-3.22,6.43-6.28,9.87-9.18,1.72-1.45,3.48-2.86,5.28-4.24,.91-.68,1.81-1.36,2.76-2.02,.46-.33,.94-.67,1.42-1l.74-.5,.82-.53c3.02-1.96,7.06-1.1,9.03,1.92,1.96,3.02,1.1,7.06-1.92,9.03-.07,.04-.14,.09-.21,.13l-.19,.11Z"></path><path class="cls-18" d="M766.41,963.77l-1.39,1.05-1.46,1.14c-.97,.78-1.95,1.56-2.92,2.36-1.94,1.6-3.86,3.25-5.76,4.92-3.8,3.35-7.53,6.82-11.19,10.36-3.65,3.56-7.24,7.18-10.75,10.9-1.78,1.84-3.48,3.74-5.23,5.61l-5.12,5.71-.07,.08c-2.04,2.28-5.54,2.47-7.81,.43-2.23-2-2.45-5.4-.54-7.68l5.07-6.03c1.73-1.98,3.42-3.99,5.19-5.94,3.49-3.94,7.08-7.79,10.73-11.59,3.67-3.78,7.42-7.51,11.28-11.14,1.94-1.81,3.89-3.61,5.9-5.37,1-.89,2.02-1.76,3.04-2.63l1.56-1.3c.54-.44,1.03-.85,1.67-1.34,2.85-2.21,6.94-1.69,9.15,1.15,2.21,2.85,1.69,6.94-1.15,9.15-.02,.01-.03,.03-.05,.04l-.15,.12Z"></path><path class="cls-18" d="M776.63,970.66c-6.09,7.56-12.16,15.2-18.18,22.86-6.02,7.66-11.98,15.36-17.89,23.1h0c-1.91,2.51-5.48,2.99-7.98,1.08-2.45-1.87-2.96-5.36-1.17-7.85,5.72-7.96,11.5-15.87,17.32-23.74,5.83-7.88,11.68-15.7,17.63-23.52,2.18-2.87,6.27-3.42,9.14-1.24,2.87,2.18,3.42,6.27,1.24,9.14-.03,.04-.06,.08-.1,.12l-.03,.04Z"></path><path class="cls-18" d="M787.49,980.16c-2.34,3.55-4.67,6.98-7.04,10.44-2.37,3.45-4.77,6.87-7.19,10.28-4.85,6.82-9.82,13.56-14.95,20.21-1.84,2.38-5.27,2.82-7.65,.98-2.32-1.79-2.79-5.08-1.12-7.45l.02-.03c4.73-6.7,9.33-13.53,13.8-20.44,2.24-3.45,4.45-6.93,6.64-10.42,2.18-3.48,4.36-7.02,6.44-10.49l.02-.03c1.85-3.09,5.86-4.09,8.95-2.24,3.09,1.85,4.09,5.86,2.24,8.95-.04,.07-.1,.17-.15,.24Z"></path></g></g><path class="cls-16" d="M260.45,965.25v255.01c0,11.38,8.81,20.61,19.68,20.61h102.89c10.87,0,19.68-9.23,19.68-20.61v-255.01h-142.25Z"></path><path class="cls-12" d="M279.68,965.25v246.14c0,10.99,7.62,19.89,17.02,19.89h88.98c9.4,0,17.02-8.91,17.02-19.89v-246.14h-123.01Z"></path></g><path class="cls-12" d="M690.36,1587.53l-34.4-170.72h-175.31c-20.87,0-38.1,16.29-39.28,37.12l-16.54,133.6h265.53Z"></path><path class="cls-12" d="M394.72,1601.1h382.99c4.52,0,8.2,3.67,8.2,8.2v15.57H386.52v-15.57c0-4.52,3.67-8.2,8.2-8.2Z"></path><path class="cls-16" d="M601.78,1474c.7,.81-7.09,120.03-6.25,120.86l162.64,1.01-18.18-140.37c-.67-5.19,2.7-9.36,7.23-11.97,70.72-40.72,55.29-85.4,56.07-127.24H500.51c8.75,33.51,26.37,68.46,36.68,91.03,17.5,38.34,60.5,39.38,64.6,66.68Z"></path><path class="cls-12" d="M611.3,1463.79c.7,.81,15.7,106.86,19.24,145.24h137.48l-20.53-161.87c-.67-5.19,2.87-9.08,7.23-11.97,46.89-31.08,55.29-85.4,56.07-127.24H508.01c8.75,33.51,26.37,68.46,36.68,91.03,17.5,38.34,62.52,37.51,66.62,64.81Z"></path></g><g><path class="cls-14" d="M1605.7,1020.17l-72.17,111.89c-48.46-14.09-102.2-38.66-141.96-69.74l-52.61,90.58c55.52,31.95,130.63,43.22,194.01,51.1,5.62,.68,11.81,1.2,17.48,1.65,11.01,.86,21.61-5.03,27.3-15.28,36.76-66.24,53.65-155.33,53.65-155.33l-25.71-14.87Z"></path><path class="cls-22" d="M1593.84,1140.62c-13.1,13.26-31.31,27.17-51.1,25.62-22.6-1.77-37.4-17.88-47.15-37.09-1.84-3.62-2.98-7.34-3.47-11.04-37.02-14.17-71.74-33.27-100.55-55.79l-52.61,90.58c55.52,31.95,130.63,43.22,194.01,51.1,5.62,.68,11.81,1.2,17.48,1.65,11.01,.86,21.61-5.03,27.3-15.28,10.75-19.36,21.77-45.85,28.59-66.33-3.19,3.97-8.95,12.96-12.51,16.57Z"></path><path class="cls-17" d="M1481.09,1108.94c-32.7-13.41-58.65-26.18-89.52-46.62l-52.61,90.58c39.61,22.79,80.67,41.44,125.67,47.44,8.01-24.53,15.25-65.61,16.45-91.4Z"></path><path class="cls-21" d="M1460.87,1150.83c-26.38-16.14-48.64-39.6-55.74-70.91-.72-3.16-.97-6.27-.8-9.28-4.21-2.71-8.45-5.48-12.76-8.33l-52.61,90.58c39.61,22.79,80.67,41.44,125.67,47.44,3.87-11.86,7.33-26.67,10.01-41.71-4.68-2.46-9.29-5.04-13.78-7.79Z"></path><path class="cls-3" d="M1610.39,1382c-30.42-13.15-63.74-19.34-95.74-22.73-28.65-2-87.93-3.56-116.8-4.84-2.93,13.23-6.67,95.23-16.81,121.02,19.53-1.3,39.77-1.76,62.44-4.36-34.37,24.73-65.31,55.52-93.79,80.94,0,0,23.13,47.51,36.34,40.98,27.74-13.7,79.77-47.77,121.84-68.31,35.25-19.99,118.62-54.08,127.33-91.79,4.51-19.53-6.66-42.72-24.81-50.91Z"></path><path class="cls-4" d="M1565.42,1420.55c-3.16-3.06-6.12-6.32-9.24-9.41-1.57-1.56-3.23-3.01-4.92-4.43-3.12-2.07-3.33-2.33-2.63-1.92-7.51-5.15-15.59-9.31-23.91-12.97-20.4-8.46-40.84-16.79-61.18-25.39,2.37,1,4.73,2,7.1,3-11.97-5.03-24.06-9.79-36.44-13.62-13.96-.49-37.81-3.02-47.33-3.44-2.93,13.23-8.64,94.85-18.79,120.64,19.53-1.3,52.74,.7,75.41-1.9-34.37,24.73-65.31,55.52-93.79,80.94,0,0,23.13,47.51,36.34,40.98,27.74-13.7,79.77-47.77,121.84-68.31,32.83-18.62,107.35-49.45,124.49-84.05-24.85,7.3-48.97-2.74-66.94-20.11Z"></path><g><path class="cls-14" d="M1499.6,937.85c-4.11-25.1-41.99-53.9-64.13-58.37-22.14-4.46-51.24,25.31-59.28,37.89-6.22,9.75-8.96,50.91-9.57,69.75-20.99,28.05-39.51,45.64-39.51,45.64l70.54,56.73,15.76-39.08c14.65,7.75,34.46,16,41.83,10.69,4.17-3.01,24.17-35.97,24.17-35.97,0,0,10.91,2.73,13.19,.17,2.29-2.58-1.63-38.33-1.63-38.33,0,0,6.8-10.33,7.87-14.43,1.07-4.1,2.17-26.13,.77-34.68Z"></path><path class="cls-22" d="M1437.37,1056.69c-7.94-4.57-16.11-9.62-22.22-16.36-7.28-2.88-13.4-2.04-14.98,8.92,.54,1.47-5.06,21.11,1.22,27.67,0,1.3-.07,2.59-.22,3.86l12.24-30.36c12.91,6.83,29.81,14.04,38.69,12.03-5.05-1.19-9.98-3.02-14.73-5.75Z"></path><path class="cls-26" d="M1518.27,932.41c1.77,1.05-9.23,18.34-20,16.44-9.18-1.62-22.05-5.96-28.58-3.66-6.53,2.3-21.62,20.45-28.12,19.84-6.5-.61-14.09-7.47-16.35-8.71-2.26-1.23-7.42-8.66-15.55,6.25-8.13,14.91-13.25,17.91-18.96,24.29-6.05,6.75-27.17,5.34-27.17,5.34,0,0,2.34-31.76,.78-39.65-1.56-7.89-8.39-39.5,22.78-61.19,31.17-21.69,65.75-16.32,82.35-3.75s35.99,37.2,48.84,44.8Z"></path><path class="cls-11" d="M1552.85,940.7s-8.38,10.27-18.31,7.68c-9.93-2.58-59.14-18.13-59.14-18.13l13.35-24.5,64.09,34.94Z"></path><g class="cls-1"><path d="M1427,963.24c.3-5.96-2.62-11.73-7.77-14.76-2.71-1.59-5.86-2.35-8.59-.11-6.36,5.22-10.6,14.87-7.93,20.36,2.67,5.49,11.12,22.28,18.45,15.72,4.04-3.61,5.39-12.37,5.84-21.21Z"></path></g><path class="cls-14" d="M1430.9,961.97c.3-5.96-2.62-11.73-7.77-14.76-2.71-1.59-5.86-2.35-8.59-.11-6.36,5.22-10.6,14.87-7.93,20.36,2.67,5.49,9.14,20.99,15.18,16.61,4.38-3.19,8.66-13.27,9.11-22.1Z"></path><path class="cls-11" d="M1504.17,926.76s-77.49,12.19-141.12,27.46c0,0-15.62-73.89,54.53-87.96,72.89-14.62,86.59,60.5,86.59,60.5Z"></path><path class="cls-23" d="M1402.99,931.57c-.19-21.2,3.16-46.1,14.45-65.28-69.98,14.14-54.38,87.93-54.38,87.93,13.21-3.17,27.02-6.21,40.61-9.03-.43-4.66-.64-9.25-.68-13.62Z"></path></g><path class="cls-17" d="M1325.91,1017.78s-74.36,47.91-88.88,118.3c-21.78,105.61-36.12,188.01-30.13,305.41,3.05,59.67,115.58,97.72,146.97,81.58,31.39-16.14,41.81-36.5,32.16-64.78-26.09-76.51,38.56-225.14,44.17-265.5,3.3-23.75,4.08-79.95-23.12-116.66-9.89-13.35-46.48-58.6-81.17-58.35Z"></path><path class="cls-21" d="M1380.47,1398.21c-49.31-19.98-92.7-53.34-103.35-108-.53-2.7-.25-16.31-.72-20.52-3.03-27.26-1.97-54.77-.86-82.11,1.39-34.14,5.52-67.88,16.01-100.53,4.58-14.26,9.96-28.56,15.79-42.37,3.51-8.33,7.74-16.61,13.6-23.45-16.9,12.16-71.66,55.52-83.9,114.85-21.78,105.61-36.12,188.01-30.13,305.41,3.05,59.67,115.58,97.72,146.97,81.58,31.39-16.14,41.81-36.5,32.16-64.78-5.83-17.09-7.12-37.79-5.56-60.08Z"></path><path class="cls-3" d="M1407.08,1076.13c-4.82-6.51-48.58-55.3-86.33-32.4-66.07,40.07-92.6,112.4-93.73,117.43-16.68,74.3-30.32,128.83-30.02,280.32,.25,130.18,125.49,97.72,156.88,81.58,31.39-16.14,42.27-36.66,32.16-64.78-19.97-55.58,38.56-218.2,44.17-258.56,1.8-12.98,2.85-30.68-1-54.56h-4.15s-8.12-55.74-17.97-69.03Zm7.96,86.45c-1.64,14.67-1.19,14.17-11.31,24.07-3.91,3.83-63.92,76.04-83.88,90.9-16.3,12.14-35.87,21.98-56.6,22.11-2.47,.02-4.51-1.72-5.26-4-5.41-16.55-4.96-35.29-3.97-52.45,2.47-42.85-.06-85.02,16.86-124.51,33.42-78.02,88.47-71.93,98.92-64.64,6.51,4.07,18.63,14.11,23.86,19.71,10.62,11.38,16.75,24.83,19.31,40.11,1.49,8.89,2.1,17.89,2.27,26.9,.14,7.17,.61,14.64-.19,21.79Z"></path><path class="cls-14" d="M1337.78,1580.13c-2.95-1.97-14.76-16.72-17.71-21.45-2.95-4.72-67.3,26.36-65.53,39.55,1.77,13.19,59.03,17.71,59.03,17.71,0,0,13.8,4.28,54.89,1.07,12.58-.98-30.69-36.89-30.69-36.89Z"></path><path class="cls-8" d="M1260.35,1379.53c10.8-2.14,21.62-4.28,32.45-6.43,7.8,13.89,21.14,23.87,33.37,33.62,26.22,20.88,53.21,40.65,81.54,58.16-42.26,15.7-73.72,29.99-118.42,48.34-90.8,34.35-123.57-111.81-28.94-133.7Z"></path><g><path class="cls-14" d="M1320.07,1563.23c1.56,2.5,5.61,7.82,9.51,12.56-5.46,9.91-11.38,19.46-15.69,30.05-1.77,4.36-3.32,9.28-4.14,14.3-12.85-1.29-53.71-6.25-55.2-17.36-1.77-13.19,62.57-44.27,65.53-39.55Z"></path><path class="cls-5" d="M1329.58,1574.18s-8.23-25.46-31.88-42.49c0,0-61.95,32.05-104.93,46.33-23.59,7.84-39.12,31.58-39.12,31.58,0,0,8.9,20.59,36.46,11.94,22.38-7.02,77.34-2.2,82.65-.49s7.67-21.86,20.95-27.33c13.28-5.46,35.86-19.54,35.86-19.54Z"></path><g class="cls-31"><path d="M1314.35,1570.87c-23.92-4.27-48.44-9.28-73.03-12.21,30.16-13.41,56.38-26.97,56.38-26.97,23.65,17.03,31.88,42.49,31.88,42.49,0,0-2.19,1.37-5.62,3.42-2.23-3.39-5.6-6.01-9.61-6.73Z"></path></g><path class="cls-3" d="M1386.63,1560.23l-60.93,2.74s-11.35,5.9-24.46,39.74c-5.1,13.17,1.24,20.94,1.24,20.94,0,0,170.77,.81,248.88-.65,33.53-5.3,53.86-57.61,32.05-82.93-22.71-26.36-137.08-106.19-189.11-127.63-74.01-30.49-179.92-111.25-194.4-13.07-10.17,68.91,186.75,160.85,186.75,160.85Z"></path><path class="cls-4" d="M1507.08,1590.16c-31.2-19.65-64.53-35.68-99.67-46.83-55.95-17.76-130.87-45.9-160.19-76.69-49.78-52.26-27.76-231.1-24.83-247.96,8.41-48.33,37.33-99.93,59.15-143.67-31.86,36.75-53.69,82.46-54.52,86.15-15.9,70.84-28.49,123.7-29.94,259.74-7.36,62.39,23.57,98.52,47.6,110.77,21.59,11.01,107.57,30.1,107.57,30.1l-26.56,1.19s-11.35,5.9-24.46,39.74c-5.1,13.17,1.24,20.94,1.24,20.94,0,0,170.77,.81,248.88-.65,10.99-1.74,20.56-8.52,27.69-17.76-28.22,6.25-53.43-3.41-71.97-15.09Z"></path></g><path class="cls-14" d="M1579.25,1291.81c-92.07-20.01-132.59-20.51-151.35-17.51-7.86-39.85-18.76-116.64-26-133.57-10.77-25.17-94.13,23.77-94.58,23.72,3.42,14.61,42.46,121.53,53.95,152.87,2.47,10.68,8.93,20.76,28.47,24.71,49.39,9.97,103.38-5.62,186.15-12.87,16.79-1.47,17.96-34.17,3.37-37.35Z"></path><path class="cls-22" d="M1394.29,1316.38c-6.04-6.74-16.93-39.85-6.7-51.6,5.29-6.08,33.24-23.38,34.26-24.01-6.8-39.56-14.43-87.15-19.95-100.04-10.77-25.17-94.13,23.77-94.58,23.72,3.42,14.61,42.46,121.53,53.95,152.87,2.47,10.68,8.93,20.76,28.47,24.71,47.88,9.66,100.08-4.69,178.64-12.18-1.58-1.58-152.88,10.2-174.09-13.46Z"></path><path class="cls-17" d="M1398.93,1123.63c-22.29-74.54-40.92-49.09-59.96-49.14-38.89-.09-50.68,58.17-41.32,83.28,5.65,15.15,32.49,103.88,32.49,103.88,44.86,.2,94.99-30.21,94.99-30.21,0,0-12.29-61.33-26.2-107.82Z"></path><path class="cls-21" d="M1345.84,1232.33c-7.83-11.96-13.12-25.88-17.31-39.49-4.02-13.05-6.82-26.47-8.99-39.94-3.56-22.13-5.87-44.45-6.91-66.84-17.48,18.27-21.73,53.62-14.98,71.72,5.65,15.15,32.49,103.88,32.49,103.88,12.64,.06,25.7-2.32,37.93-5.76-8.77-6.15-15.99-14.05-22.22-23.57Z"></path><g><g><path class="cls-25" d="M1690.43,1227.13c-2.87-3.12-2.67-7.98,.45-10.85l36.01-33.13c7.85-7.22,21.56-7.83,27.32,1.14,4.68,7.29,10.88,20.14,14.68,30.81,1.42,3.99,1.41,9.13-1.71,12-3.12,2.87-12.23,5.92-15.1,2.8l4.04-3.96-21.87-23.29c-1.49-1.62-4.01-1.72-5.63-.23l-27.35,25.17c-3.12,2.87-7.98,2.67-10.85-.45Z"></path><g><path class="cls-25" d="M1696.96,1234.16l-12.25-13.31-51.08,46.99c-3.68,3.38-3.92,9.1-.53,12.78s9.1,3.92,12.78,.53l51.08-46.99Z"></path><rect class="cls-25" x="1657.39" y="1235.8" width="27.44" height="18.21" rx="3.56" ry="3.56" transform="translate(1455.85 -827.79) rotate(47.39)"></rect><path class="cls-25" d="M1737.33,1202.87l21.59,23.46-4.09,3.77c-.77,.7-1.99,.62-2.74-.19h0v-2.7s-2.7-.24-2.7-.24v-2.7s-2.7-.24-2.7-.24v-2.7s-2.7-.24-2.7-.24v-2.7s-2.7-.24-2.7-.24v-2.7s-2.7-.24-2.7-.24v-2.7s-2.7-.24-2.7-.24v-2.7s-2.7-.24-2.7-.24l-1.35-1.47,5.48-5.04Z"></path><path class="cls-11" d="M1742.16,1240.29l-3-.13,.12-3-3-.13,.12-3-3-.13,.12-3-3-.13,.12-3-3-.13,.12-3-3-.13,.12-3-3-.13,.12-3-1.44-1.56c-2.13,1.96-4.27,3.93-6.4,5.89,.02,.02,.04,.05,.07,.07l-21.46-17.8c-12.29-6.64-27.3,1.89-27.88,15.85,0,0,.75,4.68,2.35,6.43l17.48,19c1.11,1.21,1.03,3.09-.17,4.2l-8.98,8.27c-1.21,1.11-3.09,1.03-4.2-.18l-6.03-6.56c-2.19-2.38-5.22-1.14-6.12,3.57,0,0-1.15,23.59-1.77,24.15l-102.67,94.45c-4.81,4.42-5.54,11.92-1.35,16.93,4.47,5.35,12.45,5.82,17.52,1.15l149.37-137.41,4.43-4.08,3.69-3.39c2.51-2.31,6.43-2.15,8.74,.36h0l6.4-5.89-1.44-1.56Z"></path></g></g><path class="cls-14" d="M1575.14,1290.29s32.85-3.34,52.29-.85c6.17,.79,9.31,1.74,14.86,6.05l-12.58,58.13s-15.66-1.31-25.41-3.61c-24.96-5.89-36.24-16.59-42.16-27.62,0,0-15.38-36.18,13-32.12Z"></path><path class="cls-14" d="M1662.79,1319.75c-.55-.1-1.1-.26-1.64-.49l-36.98-16.14c-3.6-1.57-5.25-5.77-3.67-9.37,1.57-3.6,5.76-5.25,9.37-3.67l36.98,16.14c3.6,1.57,5.25,5.77,3.67,9.37-1.34,3.07-4.58,4.71-7.73,4.17Z"></path><path class="cls-14" d="M1655.55,1333.78c-.55-.1-1.1-.26-1.64-.49l-36.98-16.14c-3.6-1.57-5.25-5.77-3.67-9.37,1.57-3.6,5.77-5.25,9.37-3.67l36.98,16.14c3.6,1.57,5.25,5.77,3.67,9.37-1.34,3.07-4.58,4.71-7.73,4.17Z"></path><path class="cls-14" d="M1648.42,1347.42c-.8-.06-1.61-.26-2.38-.61l-36.49-16.4c-3.58-1.61-5.19-5.82-3.57-9.41,1.61-3.58,5.82-5.19,9.41-3.57l36.49,16.4c3.58,1.61,5.19,5.82,3.57,9.41-1.26,2.81-4.12,4.4-7.03,4.18Z"></path><path class="cls-14" d="M1637.08,1358.53c-.52-.09-1.04-.24-1.55-.46l-28.52-12c-3.62-1.52-5.32-5.7-3.8-9.32,1.52-3.62,5.7-5.32,9.32-3.8l28.52,12c3.62,1.52,5.32,5.7,3.8,9.32-1.31,3.11-4.58,4.81-7.77,4.26Z"></path></g><path class="cls-14" d="M1595.5,1042.45s1.54-53.51,5.73-61.68c4.85-9.46,20.39-18.93,30.24-21.7,1.82-.51,27.91,.71,21.51,9.47-9.92,13.57-4.39,46.71-4.39,46.71,0,0-2.98,31.33-31.52,38.04-16.63,3.91-22.3-8.76-21.56-10.84Z"></path><path class="cls-14" d="M1606.35,987.12c-1.03,0-2.07-.32-2.96-.98-2.22-1.64-2.69-4.77-1.06-6.99,.62-.85,15.44-20.79,28.77-26.22,5.5-2.24,24.79-4.65,29.4-5.11,2.75-.27,5.2,1.73,5.47,4.48,.27,2.75-1.73,5.2-4.48,5.47-12.87,1.28-23.84,3.29-26.62,4.42-8.9,3.63-15.43,15.85-19.22,20.98-.98,1.33-7.77,3.94-9.3,3.94Z"></path><path class="cls-14" d="M1615.21,991.12c-.91,0-1.82-.25-2.64-.76-2.34-1.46-3.05-4.54-1.59-6.88,.55-.89,13.76-21.79,31.54-26.73,5.67-1.57,21.77-2.8,24.05-2.94,2.76-.15,5.12,1.94,5.29,4.7s-1.94,5.12-4.7,5.29c-8.18,.49-18.46,1.62-21.97,2.59-14.01,3.89-25.62,22.2-25.73,22.39-.95,1.52-2.58,2.35-4.25,2.35Z"></path><path class="cls-22" d="M1631.46,959.07c-7.35,2.09-23.73,18.7-25.11,28.05-.25,1.67-1.74,17.94,2.18,13.85,.44-.38,.91-.73,1.4-1.02,5.13-3,12.98-1.72,14.37,3.77,3.03,11.97,8.49,26.07,9.13,39.19,.03,.66,.06,1.33,.09,2,13.31-11.63,15.05-29.67,15.05-29.67,0,0,9.93-43.63,19.85-57.21,0,0-15.26-5.15-36.96,1.03Z"></path><path class="cls-14" d="M1601.35,1002.18s4.94,2.11,6.79-1.99c3.17-7.02,7.82-17.33,9.92-21.07,0,0,2.58-4.06,7.59,1.88,3.02,3.59-1.35,22.72-1.35,22.72,0,0,11.73,38.22,1.17,46.56-5.12,4.05-31.11-36.72-24.12-48.1Z"></path></g><g><g><g><path class="cls-16" d="M2005.33,976.51h-367.57v61.44c0,45.29,36.64,82.01,81.84,82.01h285.74v-143.45Z"></path><path class="cls-12" d="M2005.33,958.04h-364.42c-10,0-18.1,7.23-18.1,16.16h0c0,8.92,8.1,16.16,18.1,16.16h364.42v-32.32Z"></path></g><g><path class="cls-25" d="M2005.14,1232.41h-55.21c-33.84,0-61.36,24.68-61.36,55.01v42.32c0,4.82-6.84,12.26-15.93,12.26s-15.93-7.44-15.93-12.26v-208.73h-45.43v208.73c0,31.27,28.1,57.69,61.36,57.69s61.36-26.42,61.36-57.69v-42.32c0-4.43,6.96-9.58,15.93-9.58h55.21v-45.43Z"></path><rect class="cls-30" x="1805.04" y="1157.13" width="58.66" height="16.34" rx="2.96" ry="2.96" transform="translate(3668.73 2330.6) rotate(180)"></rect><rect class="cls-30" x="1805.03" y="1119.96" width="58.66" height="8.17" transform="translate(3668.73 2248.09) rotate(180)"></rect><polygon class="cls-30" points="1809.99 1145.38 1858.74 1145.38 1863.69 1119.96 1805.04 1119.96 1809.99 1145.38"></polygon><rect class="cls-30" x="1805.04" y="1256.61" width="58.66" height="16.33" rx="2.96" ry="2.96" transform="translate(3668.73 2529.56) rotate(180)"></rect><rect class="cls-30" x="1805.04" y="1308.22" width="58.66" height="16.34" rx="2.96" ry="2.96" transform="translate(3668.73 2632.77) rotate(180)"></rect><rect class="cls-30" x="1881.51" y="1308.59" width="58.66" height="16.33" rx="2.96" ry="2.96" transform="translate(3821.68 2633.51) rotate(180)"></rect><rect class="cls-30" x="1967.64" y="1247.89" width="58.66" height="16.33" rx="2.96" ry="2.96" transform="translate(3253.02 -740.91) rotate(90)"></rect></g></g><g><g><rect class="cls-29" x="1856.34" y="906.3" width="22.03" height="7.54" transform="translate(3097.35 2584.09) rotate(-152.29)"></rect><path class="cls-25" d="M1854.76,903.05l2.23-5.94c.93-2.5,3.45-4.06,6.13-3.79l63.48,6.31c4.15,.41,7.75-2.81,7.75-6.94v-5.89h40.24v71.23h-40.24v-11.06c-.29-7.56-7.64-9.89-7.64-9.89l-71.95-34.04Z"></path><rect class="cls-29" x="1934.35" y="886.81" width="40.24" height="5.77"></rect><path class="cls-25" d="M1884.64,859.91c0-1.39,1.1-2.52,2.46-2.52h83.22c2.88,0,5.21,2.39,5.21,5.34v25.56h-42.15v-14.84c0-2.44-1.75-4.51-4.11-4.86l-42.51-6.19c-1.21-.18-2.11-1.24-2.11-2.49h0Z"></path></g><path class="cls-10" d="M1870.81,938.96c0,4.43-3.59,8.03-8.03,8.03s-8.03-3.59-8.03-8.03,8.03-16.5,8.03-16.5c0,0,8.03,12.07,8.03,16.5Z"></path></g></g><rect class="cls-24" y="1623.66" width="2322.48" height="45.68"></rect></g><g id="Layer_3" data-name="Layer 3"><g><g><rect class="cls-7" x="904.69" width="487.38" height="487.38" rx="21.52" ry="21.52"></rect><path class="cls-12" d="M1288.59,206.28h-29.29c-.55,0-1,.45-1,1v6.01h-57.91c-45.95,0-83.34,37.39-83.34,83.34v6.74h-5.14c-.55,0-1,.45-1,1v16.6c0,.55,.45,1,1,1h5.14v5.08c0,10.76-8.75,19.51-19.51,19.51s-19.51-8.75-19.51-19.51v-36.5h6.02c.55,0,1-.45,1-1v-16.6c0-.55-.45-1-1-1h-6.02V108.27h5.9c.55,0,1-.45,1-1v-29.28c0-.55-.45-1-1-1h-75.64c-.55,0-1,.45-1,1v29.28c0,.55,.45,1,1,1h5.9v163.69h-6.02c-.55,0-1,.45-1,1v16.6c0,.55,.45,1,1,1h6.02v36.5c0,45.95,37.39,83.34,83.34,83.34s83.34-37.39,83.34-83.34v-5.08h6.91c.55,0,1-.45,1-1v-16.6c0-.55-.45-1-1-1h-6.91v-6.74c0-10.76,8.75-19.51,19.51-19.51h57.91v5.79c0,.55,.45,1,1,1h29.29c.55,0,1-.45,1-1v-75.64c0-.55-.45-1-1-1Zm-263.85,65.68V108.27h42.76v163.69h-42.76Zm0,18.6h42.76v36.5c0,16.57,13.48,30.04,30.04,30.04s30.04-13.48,30.04-30.04v-5.08h42.76v5.08c0,40.14-32.66,72.8-72.81,72.8s-72.81-32.66-72.81-72.8v-36.5Zm145.61,6.08v6.74h-42.76v-6.74c0-40.15,32.66-72.81,72.81-72.81h57.91v42.76h-57.91c-16.57,0-30.04,13.48-30.04,30.04Z"></path></g><g><rect class="cls-9" x="1297.23" y="320.01" width="385.09" height="385.09" rx="19.24" ry="19.24"></rect><g><g><path class="cls-12" d="M1474.42,382.14c-10.17-4.32-23.49-8.35-31.82-9.81-10.25-1.79-18.87,8.46-18.87,18.87v33.17l14.98-2.03v-19.67c0-2.14,1.74-3.89,3.89-3.89l2.18-.02v5.23h1.94l1.94-1.77,1.94,1.77,1.94-1.77,1.94,1.77,1.94-1.77,1.94,1.77,1.94-1.77,1.94,1.77,1.94-1.77,1.94,1.77,1.94-1.77,1.94,1.77,1.94-1.77,1.94,1.77c.16,0,.31-.03,.46-.06,3.96-.6,7.51-8.65,7.51-12.64s-3.68-7.54-7.49-9.16Z"></path><path class="cls-12" d="M1430.99,490.81l-.22-.29c-4.06-5.49-2.72-10.22-.34-12.6,1.17-1.17,2.71-1.94,4.45-2.22,.51-.08,1.01-.12,1.5-.12h6.46v-7.45s-22.97,0-22.97,0c-.67,0-1.36-.09-2.05-.24v9.57c0,1.92,1.56,3.47,3.47,3.47h1.63v33.18c0,4.87,3.95,8.83,8.83,8.83,4.88,0,8.83-3.95,8.83-8.83v-13.44c-4.35-4.55-9.29-9.56-9.34-9.61l-.26-.26Z"></path><path class="cls-12" d="M1440.58,480.88h-5.37c-2.21,.67-2.72,3.34-.31,6.59,0,0,5.08,5.15,9.55,9.83,3.5,3.67,6.63,7.04,6.63,7.39v136.13c0,6.37,4.9,11.85,11.26,12.15,6.79,.32,12.4-5.09,12.4-11.82v-208.81c0-3.33,2.7-6.04,6.04-6.04v-8.49h-2.07s-2.07,2.07-2.07,2.07l-2.07-2.07-2.07,2.07-2.07-2.07-2.07,2.07-2.07-2.07-2.07,2.07-2.07-2.07-2.07,2.07-2.07-2.07-2.07,2.07-2.07-2.07-2.07,2.07-2.07-2.07h-2.07c0,2.82,0,5.67,0,8.49,.03,0,.06,0,.1,0l-5.13,.69-14.98,2.03-6.85,.93c-12.89,4.44-16.68,20.85-7.04,30.49,0,0,3.86,2.56,6.17,2.56h5.29s1.63,0,1.63,0h18.28c.21,0,.42,.03,.62,.07,1.3,.29,2.28,1.44,2.28,2.83v11.91c0,1.6-1.3,2.9-2.9,2.9h-.63s-2.3,0-2.3,0c-.3,.1-.61,.17-.94,.17h-.63Z"></path></g><g><path class="cls-12" d="M1534.2,443.65l-7.4-15.54c-.27-.57-1.08-.6-1.38-.04-1.75,3.21-6.02,11.69-6.5,19.01-.08,1.13,.04,2.27,.28,3.37,.33-.12,13.93-6.35,15.01-6.81Z"></path><path class="cls-12" d="M1564.91,427.65c-3.21-2.39-12.64-6.09-16.96-7.73-.65-.25-1.27,.43-.97,1.06l8.03,16.99s-23.32,10.65-32.4,15.02l-4.74,2.21,2.47,5.28,2.1-.98c.92,1.52,6.35,10.38,12.67,18.05v117.08c0,5.56,4.27,10.34,9.82,10.6,5.93,.28,10.82-4.44,10.82-10.31v-121.42c2.85-6.07,9.68-19.28,12.32-25.51,2-4.71,7.49-12.44-3.14-20.34Zm-27.74,24.74c.68-.32,1.5-.03,1.82,.65l3.52,7.41c.32,.68,.03,1.5-.65,1.82-.68,.32-1.5,.03-1.82-.65l-3.52-7.41c-.32-.68-.03-1.5,.65-1.82Zm-3.6,1.72c.68-.32,1.5-.03,1.82,.65l3.52,7.41c.32,.68,.03,1.5-.65,1.82-.68,.32-1.5,.03-1.82-.65l-3.52-7.41c-.32-.68-.03-1.5,.65-1.82Zm1.09,11.59c-.68,.32-1.5,.03-1.82-.65l-3.52-7.41c-.23-.49-.15-1.04,.17-1.43l.63-.29-.06-.13c.66-.26,1.41,.03,1.72,.68l3.52,7.41c.32,.68,.03,1.5-.65,1.82Z"></path></g></g></g><g><circle class="cls-6" cx="1732.14" cy="322.81" r="136.54"></circle><path class="cls-12" d="M1715.67,376.07c-3.35,0-6.56-1.33-8.93-3.7l-48.32-48.32c-4.93-4.93-4.93-12.93,0-17.87,4.93-4.93,12.93-4.93,17.87,0l39.38,39.38,72.31-72.31c4.94-4.93,12.94-4.93,17.87,0,4.93,4.93,4.93,12.93,0,17.87l-81.25,81.25c-2.37,2.37-5.58,3.7-8.93,3.7Z"></path></g></g></g></svg>